<svg width="96" height="96" xmlns="http://www.w3.org/2000/svg" xmlns:xlink="http://www.w3.org/1999/xlink" xml:space="preserve" overflow="hidden"><g transform="translate(-232 -564)"><path d="M304 635.6 290.31 613.78C290.065 613.38 289.629 613.137 289.16 613.14 288.689 613.14 288.251 613.381 288 613.78L284 620.2 292.58 634.08C293.306 635.178 293.462 636.557 293 637.79L302.7 637.79C303.494 637.83 304.17 637.218 304.21 636.424 304.224 636.134 304.151 635.847 304 635.6Z"/><path d="M289.1 635.73 267.35 600.34C267.071 599.979 266.636 599.775 266.18 599.79L266 599.79 265.82 599.79C265.364 599.775 264.929 599.979 264.65 600.34L242.9 635.73C242.592 636.161 242.549 636.728 242.79 637.2 243.033 637.628 243.514 637.862 244 637.79L288 637.79C288.487 637.862 288.967 637.628 289.21 637.2 289.451 636.728 289.408 636.161 289.1 635.73ZM269.64 616.92 266.18 620 262.72 616.92 257 620.38 266 605.79 274.76 620Z"/><path d="M256 602C256 603.657 254.657 605 253 605 251.343 605 250 603.657 250 602 250 600.343 251.343 599 253 599 254.657 599 256 600.343 256 602Z"/><path d="M325 577 245 577 245 588 234 588 234 649.79 314 649.79 314 638.79 325 638.79ZM308 644 240 644 240 593.79 308 593.79ZM319 633 314 633 314 588 251 588 251 583 319 583Z"/></g></svg>