<svg width="96" height="96" xmlns="http://www.w3.org/2000/svg" xmlns:xlink="http://www.w3.org/1999/xlink" xml:space="preserve" overflow="hidden"><g transform="translate(-592 -312)"><path d="M609 323 615 323 615 397 609 397Z"/><path d="M666 323 619 323 619 397 666 397C668.2 397 670 395.2 670 393L670 327C670 324.8 668.2 323 666 323ZM636.1 351.1C636.1 346.9 639.5 343.5 643.7 343.5 647.9 343.5 651.3 346.9 651.3 351.1 651.3 355.3 647.9 358.7 643.7 358.7 639.5 358.7 636.1 355.4 636.1 351.1ZM659 376 628.4 376 628.4 368.4C628.4 367.2 629 366.1 629.9 365.3 632.2 363.7 634.7 362.4 637.4 361.7 639.5 361.1 641.6 360.8 643.7 360.7 645.8 360.7 648 361 650 361.7 652.7 362.4 655.2 363.6 657.5 365.3 658.4 366 659 367.2 659 368.4L659 376Z"/></g></svg>