<svg width="96" height="96" xmlns="http://www.w3.org/2000/svg" xmlns:xlink="http://www.w3.org/1999/xlink" xml:space="preserve" overflow="hidden"><g transform="translate(-466 -554)"><path d="M482.225 615.925C479.156 614.801 476.653 612.513 475.26 609.556 473.383 605.376 473.867 600.514 476.53 596.786 479.242 593.107 483.773 591.239 488.29 591.936L491.84 592.526 491.84 588.656C491.871 581.573 496.686 575.405 503.55 573.656 510.435 571.996 517.554 575.315 520.71 581.656L521.92 584.066 524.43 583.176C528.186 581.851 532.351 582.433 535.6 584.736 538.831 587.101 540.743 590.862 540.75 594.866L540.75 597.986 544.83 597.986C550.012 598.181 554.056 602.539 553.861 607.722 553.675 612.669 549.68 616.623 544.73 616.756L539.48 616.756 526.52 616.734 526.52 622.966 534.17 622.986 544.73 622.986C553.365 622.782 560.2 615.616 559.996 606.98 559.815 599.362 554.17 592.982 546.63 591.876 545.834 586.986 543.147 582.604 539.15 579.676 535.012 576.747 529.847 575.661 524.88 576.676 519.994 569.132 510.881 565.489 502.14 567.586 493.602 569.763 487.213 576.865 485.95 585.586 480.294 585.758 475.025 588.501 471.64 593.036 467.62 598.622 466.888 605.928 469.72 612.2 472.604 618.383 478.649 622.484 485.46 622.88L492.8 622.88 500.52 622.901 500.52 616.689 487.52 616.666 485.72 616.666C484.582 616.594 483.46 616.365 482.385 615.986Z"/><path d="M521.52 634.986 521.52 610.986 534.02 610.986 513.52 586.986 493.02 610.986 505.52 610.986 505.52 634.986 521.52 634.986Z"/></g></svg>