<svg width="96" height="96" xmlns="http://www.w3.org/2000/svg" xmlns:xlink="http://www.w3.org/1999/xlink" xml:space="preserve" overflow="hidden"><g transform="translate(-373 -562)"><path d="M381 579 381 641 461 641 461 579ZM450 585C451.105 585 452 585.895 452 587 452 588.105 451.105 589 450 589 448.895 589 448 588.105 448 587 448 585.895 448.895 585 450 585ZM443 585C444.105 585 445 585.895 445 587 445 588.105 444.105 589 443 589 441.895 589 441 588.105 441 587 441 585.895 441.895 585 443 585ZM436 585C437.105 585 438 585.895 438 587 438 588.105 437.105 589 436 589 434.895 589 434 588.105 434 587 434 585.895 434.895 585 436 585ZM455 635 387 635 387 595 455 595Z"/><path d="M418.75 608.438C418.75 612.442 415.504 615.688 411.5 615.688 407.496 615.688 404.25 612.442 404.25 608.438 404.25 604.434 407.496 601.188 411.5 601.188 415.504 601.188 418.75 604.434 418.75 608.438Z"/><path d="M426 632 426 624.75C425.976 623.615 425.444 622.55 424.55 621.85 422.448 620.24 420.044 619.069 417.481 618.406 415.543 617.812 413.527 617.507 411.5 617.5 409.475 617.535 407.464 617.839 405.519 618.406 402.985 619.146 400.594 620.31 398.45 621.85 397.556 622.55 397.024 623.615 397 624.75L397 632Z"/><path d="M425.05 600.13 443.95 600.13C444.533 600.133 445.003 600.609 445 601.192 445 601.192 445 601.192 445 601.192L445 613.959C445.003 614.542 444.533 615.018 443.95 615.021 443.95 615.021 443.95 615.021 443.95 615.021L432.4 615.021 428.2 619.277 428.2 615.021 425.05 615.021C424.467 615.018 423.997 614.542 424 613.959 424 613.959 424 613.959 424 613.959L424 601.192C423.997 600.609 424.467 600.133 425.05 600.13 425.05 600.13 425.05 600.13 425.05 600.13Z"/></g></svg>